<svg width="1400" height="332" viewBox="0 0 1400 332" fill="none" xmlns="http://www.w3.org/2000/svg">
<path d="M1034.07 111H957.293V87H916.453V189H957.293V158H1034.07V111Z" fill="#B1B1B1"/>
<path d="M130.868 84.1101L79.6219 77.7801V49.3301H48.4691H45.4959H0V158H49.0082L48.4691 139.79L75.1459 126H130.688L130.868 84.1101Z" fill="#B1B1B1"/>
<path d="M1400 89L1388.56 82.35V42H1274.21V0H1127.19V109H1092.88V134H1065.11V188H1213.77V152V134V115H1274.21V113H1388.56V111H1400V89Z" fill="#B1B1B1"/>
<path d="M228.525 92H194.399V134H228.525V92Z" fill="#B1B1B1"/>
<path d="M401.867 77H344.691V197H401.867V77Z" fill="#B1B1B1"/>
<path d="M774.329 103V45H671.412V78H592.999L568.495 86V103H496.616V226H779.23V103H774.329Z" fill="#B1B1B1"/>
<path d="M135.949 124.88L68.6114 125L47.3746 138V158L0 157.89V253.89H62.077V322.78H85.4376V165.04H135.949V157.89V131.89H184.418L184.597 125L135.949 124.88Z" fill="#4E4D50"/>
<path d="M346.324 64H245.041V85L225.438 97V131L251.575 131.22V227H274.446V131.41L346.324 132V64Z" fill="#4E4D50"/>
<path d="M1176.2 148H954.026V189H942.59V310H1140.26V203H1176.2V148Z" fill="#4E4D50"/>
<path d="M1400 111H1350.99V248H1400V111Z" fill="#4E4D50"/>
<path d="M514.586 194V92H392.065L382.264 97V190H364.294V281H512.952V194H514.586Z" fill="#4E4D50"/>
<path d="M1308.52 51H1207.23V110H1308.52V51Z" fill="#4E4D50"/>
<path d="M702.45 207V142H642.007V207V214V258H730.042V207H702.45Z" fill="#4E4D50"/>
<path d="M1352.63 206V104H1290.55L1252.98 83H1203.97V187H1084.71V229V305.78H1055.31V141L971.995 163V263H947.001V250.96V109H916.453V65H888.681V56H877.246V65H807.001V98H738.39L723.687 110V250.96H667.965V236.74L629.967 207.18V136.59H504.604V192.78H459.762V241.29L406.915 270.81H371.972V226.22H371.743V121.67L273.727 88V226.22H252.67V164.04V130.89H135.949V164.04H85.4376V253V321.78H62.077V253H0V332H47.4399H62.077H85.4376H109.517H147.515H252.67H1400V318V305.78V229L1352.63 206Z" fill="#2A2E31"/>
</svg>
