<svg xmlns="http://www.w3.org/2000/svg" viewBox="0 0 857 332">
    <defs>
      <style>
        .back {
          fill: #b1b1b1;
        }

        .middle {
          fill: #4e4d50;
        }

        .front {
          fill: #2a2e31;
        }
      </style>
    </defs>
    <title>City Scape</title>
    <g>
      <g>
        <polygon class="back" points="633 111 586 111 586 87 561 87 561 189 586 189 586 158 633 158 633 111" />
        <polygon class="back"
                 points="80.11 84.11 48.74 77.78 48.74 49.33 29.67 49.33 27.85 49.33 0 49.33 0 158 30 158 29.67 139.79 46 126 80 126 80.11 84.11" />
        <polygon class="back"
                 points="857 89 850 82.35 850 42 780 42 780 0 690 0 690 109 669 109 669 134 652 134 652 188 743 188 743 152 743 134 743 115 780 115 780 113 850 113 850 111 857 111 857 89" />
        <rect class="back" x="119" y="92" width="20.89" height="42" />
        <rect class="back" x="211" y="77" width="35" height="120" />
        <polygon class="back"
                 points="474 103 474 45 411 45 411 78 363 78 348 86 348 103 304 103 304 226 477 226 477 103 474 103" />
        <polygon class="middle"
                 points="83.22 124.88 42 125 29 138 29 158 0 157.89 0 253.89 38 253.89 38 322.78 52.3 322.78 52.3 165.04 83.22 165.04 83.22 157.89 83.22 131.89 112.89 131.89 113 125 83.22 124.88" />
        <polygon class="middle"
                 points="212 64 150 64 150 85 138 97 138 131 154 131.22 154 227 168 227 168 131.41 212 132 212 64" />
        <polygon class="middle" points="720 148 584 148 584 189 577 189 577 310 698 310 698 203 720 203 720 148" />
        <rect class="middle" x="827" y="111" width="30" height="137" />
        <polygon class="middle" points="315 194 315 92 240 92 234 97 234 190 223 190 223 281 314 281 314 194 315 194" />
        <rect class="middle" x="739" y="51" width="62" height="59" />
        <polygon class="middle" points="430 207 430 142 393 142 393 207 393 214 393 258 446.89 258 446.89 207 430 207" />
        <polygon class="front"
                 points="828 206 828 104 790 104 767 83 737 83 737 187 664 187 664 229 664 305.78 646 305.78 646 141 595 163 595 263 579.7 263 579.7 250.96 579.7 109 561 109 561 65 544 65 544 56 537 56 537 65 494 65 494 98 452 98 443 110 443 250.96 408.89 250.96 408.89 236.74 385.63 207.18 385.63 136.59 308.89 136.59 308.89 192.78 281.44 192.78 281.44 241.29 249.09 270.81 227.7 270.81 227.7 226.22 227.56 226.22 227.56 121.67 167.56 88 167.56 226.22 154.67 226.22 154.67 164.04 154.67 130.89 83.22 130.89 83.22 164.04 52.3 164.04 52.3 253 52.3 321.78 38 321.78 38 253 0 253 0 332 29.04 332 38 332 52.3 332 67.04 332 90.3 332 154.67 332 857 332 857 318 857 305.78 857 229 828 206" />
      </g>
    </g>
  </svg>
