<svg width="857" height="332" viewBox="0 0 857 332" fill="none" xmlns="http://www.w3.org/2000/svg">
<path d="M633 111H586V87H561V189H586V158H633V111Z" fill="#B1B1B1"/>
<path d="M80.11 84.1101L48.74 77.7801V49.3301H29.67H27.85H0V158H30L29.67 139.79L46 126H80L80.11 84.1101Z" fill="#B1B1B1"/>
<path d="M857 89L850 82.35V42H780V0H690V109H669V134H652V188H743V152V134V115H780V113H850V111H857V89Z" fill="#B1B1B1"/>
<path d="M139.89 92H119V134H139.89V92Z" fill="#B1B1B1"/>
<path d="M246 77H211V197H246V77Z" fill="#B1B1B1"/>
<path d="M474 103V45H411V78H363L348 86V103H304V226H477V103H474Z" fill="#B1B1B1"/>
<path d="M83.22 124.88L42 125L29 138V158L0 157.89V253.89H38V322.78H52.3V165.04H83.22V157.89V131.89H112.89L113 125L83.22 124.88Z" fill="#4E4D50"/>
<path d="M212 64H150V85L138 97V131L154 131.22V227H168V131.41L212 132V64Z" fill="#4E4D50"/>
<path d="M720 148H584V189H577V310H698V203H720V148Z" fill="#4E4D50"/>
<path d="M857 111H827V248H857V111Z" fill="#4E4D50"/>
<path d="M315 194V92H240L234 97V190H223V281H314V194H315Z" fill="#4E4D50"/>
<path d="M801 51H739V110H801V51Z" fill="#4E4D50"/>
<path d="M430 207V142H393V207V214V258H446.89V207H430Z" fill="#4E4D50"/>
<path d="M828 206V104H790L767 83H737V187H664V229V305.78H646V141L595 163V263H579.7V250.96V109H561V65H544V56H537V65H494V98H452L443 110V250.96H408.89V236.74L385.63 207.18V136.59H308.89V192.78H281.44V241.29L249.09 270.81H227.7V226.22H227.56V121.67L167.56 88V226.22H154.67V164.04V130.89H83.22V164.04H52.3V253V321.78H38V253H0V332H29.04H38H52.3H67.04H90.3H154.67H857V318V305.78V229L828 206Z" fill="#2A2E31"/>
</svg>
