<svg width="1400" height="301" viewBox="0 0 1400 301" fill="none" xmlns="http://www.w3.org/2000/svg">
<path d="M0 131.758L46.6667 116.078C93.3333 100.544 186.667 69.1833 280 75.0451C373.333 80.9069 466.667 123.991 560 119.302C653.333 114.612 746.667 62.4423 840 32.8403C933.333 3.23838 1026.67 -3.50266 1120 2.06602C1213.33 7.63471 1306.67 25.8062 1353.33 34.7454L1400 43.8312V300.284H1353.33C1306.67 300.284 1213.33 300.284 1120 300.284C1026.67 300.284 933.333 300.284 840 300.284C746.667 300.284 653.333 300.284 560 300.284C466.667 300.284 373.333 300.284 280 300.284C186.667 300.284 93.3333 300.284 46.6667 300.284H0V131.758Z" fill="#A2583A"/>
<path d="M0 131.758L46.6667 137.326C93.3333 143.042 186.667 154.179 280 159.894C373.333 165.463 466.667 165.463 560 170.152C653.333 174.695 746.667 184.074 840 171.032C933.333 158.136 1026.67 122.965 1120 98.0526C1213.33 73.14 1306.67 58.4856 1353.33 51.1584L1400 43.8312V300.284H1353.33C1306.67 300.284 1213.33 300.284 1120 300.284C1026.67 300.284 933.333 300.284 840 300.284C746.667 300.284 653.333 300.284 560 300.284C466.667 300.284 373.333 300.284 280 300.284C186.667 300.284 93.3333 300.284 46.6667 300.284H0V131.758Z" fill="#935036"/>
<path d="M0 89.2599L46.6667 106.552C93.3333 123.991 186.667 158.575 280 160.334C373.333 162.092 466.667 130.732 560 124.87C653.333 119.008 746.667 138.645 840 143.921C933.333 149.343 1026.67 140.55 1120 146.119C1213.33 151.834 1306.67 171.764 1353.33 181.876L1400 191.841V300.284H1353.33C1306.67 300.284 1213.33 300.284 1120 300.284C1026.67 300.284 933.333 300.284 840 300.284C746.667 300.284 653.333 300.284 560 300.284C466.667 300.284 373.333 300.284 280 300.284C186.667 300.284 93.3333 300.284 46.6667 300.284H0V89.2599Z" fill="#854932"/>
<path d="M0 147.878L46.6667 147.585C93.3333 147.438 186.667 146.852 280 164.73C373.333 182.609 466.667 218.659 560 226.719C653.333 234.778 746.667 214.848 840 192.574C933.333 170.299 1026.67 145.973 1120 145.68C1213.33 145.386 1306.67 169.42 1353.33 181.29L1400 193.306V300.284H1353.33C1306.67 300.284 1213.33 300.284 1120 300.284C1026.67 300.284 933.333 300.284 840 300.284C746.667 300.284 653.333 300.284 560 300.284C466.667 300.284 373.333 300.284 280 300.284C186.667 300.284 93.3333 300.284 46.6667 300.284H0V147.878Z" fill="#77422E"/>
<path d="M0 256.32L46.6667 254.415C93.3333 252.364 186.667 248.554 280 242.838C373.333 237.27 466.667 229.942 560 231.408C653.333 232.873 746.667 243.132 840 253.683C933.333 264.087 1026.67 274.932 1120 274.639C1213.33 274.345 1306.67 263.208 1353.33 257.493L1400 251.924V300.284H1353.33C1306.67 300.284 1213.33 300.284 1120 300.284C1026.67 300.284 933.333 300.284 840 300.284C746.667 300.284 653.333 300.284 560 300.284C466.667 300.284 373.333 300.284 280 300.284C186.667 300.284 93.3333 300.284 46.6667 300.284H0V256.32Z" fill="#693B2A"/>
</svg>
