<svg width="2400" height="300" viewBox="0 0 2400 300" fill="none" xmlns="http://www.w3.org/2000/svg">
<path d="M0 131.474L80 115.794C160 100.26 320 68.8995 480 74.7613C640 80.623 800 123.707 960 119.018C1120 114.328 1280 62.1585 1440 32.5565C1600 2.95456 1760 -3.78647 1920 1.78221C2080 7.3509 2240 25.5224 2320 34.4616L2400 43.5474V300H2320C2240 300 2080 300 1920 300C1760 300 1600 300 1440 300C1280 300 1120 300 960 300C800 300 640 300 480 300C320 300 160 300 80 300H0V131.474Z" fill="#A2583A"/>
<path d="M0 131.474L80 137.043C160 142.758 320 153.895 480 159.611C640 165.179 800 165.179 960 169.869C1120 174.411 1280 183.79 1440 170.748C1600 157.852 1760 122.681 1920 97.7688C2080 72.8562 2240 58.2018 2320 50.8746L2400 43.5474V300H2320C2240 300 2080 300 1920 300C1760 300 1600 300 1440 300C1280 300 1120 300 960 300C800 300 640 300 480 300C320 300 160 300 80 300H0V131.474Z" fill="#935036"/>
<path d="M0 88.9762L80 106.268C160 123.707 320 158.292 480 160.05C640 161.809 800 130.448 960 124.586C1120 118.725 1280 138.362 1440 143.637C1600 149.059 1760 140.267 1920 145.835C2080 151.551 2240 171.481 2320 181.592L2400 191.557V300H2320C2240 300 2080 300 1920 300C1760 300 1600 300 1440 300C1280 300 1120 300 960 300C800 300 640 300 480 300C320 300 160 300 80 300H0V88.9762Z" fill="#854932"/>
<path d="M0 147.594L80 147.301C160 147.154 320 146.568 480 164.446C640 182.325 800 218.375 960 226.435C1120 234.495 1280 214.565 1440 192.29C1600 170.015 1760 145.689 1920 145.396C2080 145.103 2240 169.136 2320 181.006L2400 193.023V300H2320C2240 300 2080 300 1920 300C1760 300 1600 300 1440 300C1280 300 1120 300 960 300C800 300 640 300 480 300C320 300 160 300 80 300H0V147.594Z" fill="#77422E"/>
<path d="M0 256.037L80 254.132C160 252.08 320 248.27 480 242.555C640 236.986 800 229.659 960 231.124C1120 232.59 1280 242.848 1440 253.399C1600 263.804 1760 274.648 1920 274.355C2080 274.062 2240 262.924 2320 257.209L2400 251.64V300H2320C2240 300 2080 300 1920 300C1760 300 1600 300 1440 300C1280 300 1120 300 960 300C800 300 640 300 480 300C320 300 160 300 80 300H0V256.037Z" fill="#693B2A"/>
</svg>
