<svg width="28" height="28" viewBox="0 0 28 28" fill="none" xmlns="http://www.w3.org/2000/svg">
<path d="M14 0C6.2678 0 0 6.2678 0 14C0 21.7322 6.2678 28 14 28C21.7322 28 28 21.7322 28 14C28 6.2678 21.7322 0 14 0Z" fill="#3DD9EB"/>
<path d="M11.907 11.5822V14.0308L11.9062 17.7114V27.8439C12.5894 27.9468 13.2888 28 14.0007 28C14.6433 28 15.2761 27.9566 15.8956 27.8726V12.0183C15.8956 10.4895 16.3954 9.13361 17.8255 9.13361H20.1236V5.92201C19.7197 5.86741 18.8657 5.74841 17.2522 5.74841C13.8824 5.74841 11.907 7.5278 11.907 11.5822Z" fill="#C2FFFF"/>
<path d="M19.5994 18.2H8.39941V14H20.2994L19.5994 18.2Z" fill="#C2FFFF"/>
<path d="M15.8956 18.2V14H11.907V14.0308L11.9062 17.7114V18.2H15.8956Z" fill="white"/>
</svg>
